<svg width="49" height="48" viewBox="0 0 49 48" fill="none" xmlns="http://www.w3.org/2000/svg">
<circle cx="24.6961" cy="24" r="24" fill="#FF4975"/>
<path d="M25.1205 28.1031C25.1205 26.546 26.2103 24.6525 27.5547 23.8739L39.2651 17.0923C39.9373 16.703 40.4822 17.0186 40.4822 17.7971V32.7702C40.4822 33.5488 39.9373 34.4955 39.2651 34.8848L27.5547 41.6664C26.2103 42.445 25.1205 41.8138 25.1205 40.2567V38.6279L37.4097 31.511V29.02L25.1205 36.1369V32.2226L37.4097 25.1057V22.6148L25.1205 29.7317V28.1031Z" fill="white"/>
<path fill-rule="evenodd" clip-rule="evenodd" d="M8.69614 17.7971C8.69614 17.0186 9.24106 16.703 9.91327 17.0923L21.6236 23.8739C22.968 24.6525 24.0579 26.546 24.0579 28.1031V40.2567C24.0579 41.8138 22.968 42.445 21.6236 41.6664L9.91326 34.8848C9.24106 34.4955 8.69614 33.5487 8.69614 32.7702L8.69614 17.7971ZM11.7685 22.6147L19.9102 27.3297C20.5041 27.6737 20.9855 28.5101 20.9855 29.1979C20.9855 29.8858 20.5041 30.1646 19.9102 29.8207L11.7685 25.1057V22.6147ZM19.9102 33.7351L11.7685 29.02L11.7685 31.511L19.9102 36.226C20.5041 36.5699 20.9855 36.2911 20.9855 35.6033C20.9855 34.9154 20.5041 34.079 19.9102 33.7351Z" fill="white"/>
<path fill-rule="evenodd" clip-rule="evenodd" d="M26.5702 6.47375C25.4761 5.84208 23.7023 5.84208 22.6082 6.47376L10.3114 13.5733C9.21729 14.205 9.21729 15.2291 10.3114 15.8608L22.6082 22.9603C23.7023 23.592 25.4761 23.592 26.5702 22.9603L38.867 15.8608C39.9611 15.2291 39.9611 14.205 38.867 13.5733L26.5702 6.47375ZM24.3297 10.1024C24.6827 9.89861 25.0256 9.89276 25.3472 10.0785L29.3953 12.4156C30.6042 13.1136 31.0739 13.8797 31.0459 14.6642C31.0074 15.5445 30.3511 16.4612 29.1157 17.1745C27.9936 17.8223 26.6191 18.1933 25.2764 18.277C23.7315 18.3749 22.2149 18.1108 20.873 17.336L16.8249 14.9988C16.5033 14.8131 16.5134 14.6152 16.879 14.4041L24.3297 10.1024ZM28.0035 14.8584C28.0223 14.4761 27.8152 14.1091 27.1386 13.7185L24.7542 12.3418C24.6543 12.2842 24.5596 12.2877 24.4335 12.3605L20.7648 14.4786C20.6388 14.5513 20.6327 14.6061 20.7325 14.6637L23.117 16.0404C23.8268 16.4502 24.5558 16.5799 25.2809 16.5327C25.9222 16.4954 26.5788 16.3213 27.0956 16.0228C27.663 15.6953 27.9817 15.2679 28.0035 14.8584Z" fill="white"/>
</svg>
