<svg width="16" height="16" viewBox="0 0 16 16" fill="none" xmlns="http://www.w3.org/2000/svg">
<g id="icon/connect">
<path id="&#244;&#128;&#137;&#163;" d="M7.55496 10.762C6.86606 10.6268 6.36388 10.3435 6.00977 9.98298C4.38733 8.36698 4.39377 6.0814 6.00334 4.47827L8.2696 2.20556C9.87273 0.602437 12.1519 0.589561 13.7743 2.21844C15.3968 3.83444 15.3968 6.12647 13.7808 7.72315L11.9716 9.53231C12.1132 8.97218 12.0295 8.33479 11.8042 7.81973L12.7893 6.83467C13.8516 5.77236 13.858 4.27868 12.7828 3.2035C11.7205 2.14118 10.2268 2.14118 9.15808 3.20993L6.99483 5.36675C5.93251 6.42906 5.93251 7.92918 7.00127 8.99793C7.37469 9.37135 7.9155 9.616 8.63015 9.68682L7.55496 10.762ZM8.437 5.24442C9.12589 5.37319 9.62808 5.65647 9.98218 6.01702C11.6046 7.63302 11.5982 9.9186 9.99506 11.5217L7.72879 13.7944C6.11922 15.3976 3.84008 15.4104 2.21764 13.7816C0.595195 12.1656 0.595195 9.87353 2.2112 8.27685L4.02035 6.46769C3.87871 7.02782 3.96241 7.66521 4.18775 8.18027L3.20269 9.16533C2.14038 10.2276 2.14038 11.7213 3.20913 12.7965C4.27788 13.8588 5.77156 13.8588 6.83387 12.7965L8.99713 10.6332C10.0594 9.57094 10.0594 8.07082 8.99069 7.00207C8.61727 6.62865 8.07646 6.39043 7.36825 6.31318L8.437 5.24442Z" fill="#214EE2"/>
</g>
</svg>
