<svg width="20" height="20" viewBox="0 0 20 20" fill="none" xmlns="http://www.w3.org/2000/svg">
<g id="icon" opacity="0.65">
<path id="Vector" d="M16.25 1.25H3.75C3.4043 1.25 3.125 1.5293 3.125 1.875V6.25H16.875V1.875C16.875 1.5293 16.5957 1.25 16.25 1.25ZM5.625 4.53125C5.19336 4.53125 4.84375 4.18164 4.84375 3.75C4.84375 3.31836 5.19336 2.96875 5.625 2.96875C6.05664 2.96875 6.40625 3.31836 6.40625 3.75C6.40625 4.18164 6.05664 4.53125 5.625 4.53125ZM3.125 18.125C3.125 18.4707 3.4043 18.75 3.75 18.75H16.25C16.5957 18.75 16.875 18.4707 16.875 18.125V13.75H3.125V18.125ZM5.625 15.4688C6.05664 15.4688 6.40625 15.8184 6.40625 16.25C6.40625 16.6816 6.05664 17.0312 5.625 17.0312C5.19336 17.0312 4.84375 16.6816 4.84375 16.25C4.84375 15.8184 5.19336 15.4688 5.625 15.4688ZM3.125 12.5H16.875V7.5H3.125V12.5ZM5.625 9.21875C6.05664 9.21875 6.40625 9.56836 6.40625 10C6.40625 10.4316 6.05664 10.7812 5.625 10.7812C5.19336 10.7812 4.84375 10.4316 4.84375 10C4.84375 9.56836 5.19336 9.21875 5.625 9.21875Z" fill="#2255FF"/>
</g>
</svg>
