<svg width="16" height="16" viewBox="0 0 16 16" fill="none" xmlns="http://www.w3.org/2000/svg">
<g id="icon/file-text" opacity="0.85">
<path id="Vector" d="M13.3531 4.51094C13.4469 4.60469 13.5 4.73125 13.5 4.86406V14.5C13.5 14.7766 13.2766 15 13 15H3C2.72344 15 2.5 14.7766 2.5 14.5V1.5C2.5 1.22344 2.72344 1 3 1H9.63594C9.76875 1 9.89688 1.05313 9.99063 1.14688L13.3531 4.51094V4.51094ZM12.3469 5.09375L9.40625 2.15313V5.09375H12.3469ZM5 7.53125C4.96685 7.53125 4.93505 7.54442 4.91161 7.56786C4.88817 7.5913 4.875 7.6231 4.875 7.65625V8.40625C4.875 8.4394 4.88817 8.4712 4.91161 8.49464C4.93505 8.51808 4.96685 8.53125 5 8.53125H11C11.0332 8.53125 11.0649 8.51808 11.0884 8.49464C11.1118 8.4712 11.125 8.4394 11.125 8.40625V7.65625C11.125 7.6231 11.1118 7.5913 11.0884 7.56786C11.0649 7.54442 11.0332 7.53125 11 7.53125H5ZM5 9.65625C4.96685 9.65625 4.93505 9.66942 4.91161 9.69286C4.88817 9.7163 4.875 9.7481 4.875 9.78125V10.5312C4.875 10.5644 4.88817 10.5962 4.91161 10.6196C4.93505 10.6431 4.96685 10.6562 5 10.6562H7.875C7.90815 10.6562 7.93995 10.6431 7.96339 10.6196C7.98683 10.5962 8 10.5644 8 10.5312V9.78125C8 9.7481 7.98683 9.7163 7.96339 9.69286C7.93995 9.66942 7.90815 9.65625 7.875 9.65625H5Z" fill="#2255FF" fill-opacity="0.85"/>
</g>
</svg>
