<svg width="16" height="16" viewBox="0 0 16 16" fill="none" xmlns="http://www.w3.org/2000/svg">
<path d="M8 15C4.17745 15 1 11.8225 1 8C1 4.17059 4.17059 1 7.99314 1C11.8225 1 15 4.17059 15 8C15 11.8225 11.8294 15 8 15ZM7.23137 11.3559C7.46471 11.3559 7.66373 11.2461 7.80784 11.0196L11.0333 5.94118C11.1157 5.79706 11.2049 5.63922 11.2049 5.48824C11.2049 5.16569 10.9235 4.9598 10.6216 4.9598C10.4431 4.9598 10.2647 5.06961 10.1343 5.27549L7.20392 9.98333L5.81078 8.18529C5.63922 7.95882 5.48824 7.89706 5.28922 7.89706C4.98039 7.89706 4.7402 8.15098 4.7402 8.4598C4.7402 8.61765 4.80196 8.76863 4.9049 8.90588L6.62745 11.0196C6.80588 11.2598 6.99804 11.3559 7.23137 11.3559Z" fill="#23BB3D"/>
</svg>
