<svg width="20" height="20" viewBox="0 0 20 20" fill="none" xmlns="http://www.w3.org/2000/svg">
<g id="icon">
<path id="&#244;&#128;&#144;&#159;" d="M9.71929 11.8857C9.36776 11.8857 9.03259 11.7712 8.60749 11.5178L2.25552 7.83087C1.56065 7.43029 1.25817 7.08694 1.25817 6.57192C1.25817 6.04872 1.56065 5.71354 2.25552 5.30479L8.60749 1.61787C9.03259 1.37262 9.36776 1.25 9.71929 1.25C10.0626 1.25 10.3978 1.37262 10.8229 1.61787L17.1831 5.30479C17.8698 5.71354 18.1722 6.04872 18.1722 6.57192C18.1722 7.08694 17.8698 7.43029 17.1831 7.83087L10.8229 11.5178C10.3978 11.7712 10.0626 11.8857 9.71929 11.8857ZM9.71929 15.9405C9.39229 15.9405 9.11434 15.7851 8.73012 15.5644L1.85495 11.5096C1.46255 11.2807 1.25 10.9537 1.25 10.6022C1.25 10.2098 1.5116 9.89096 1.79772 9.72746L9.25331 14.052C9.43316 14.1583 9.58031 14.2237 9.71929 14.2237C9.85826 14.2237 9.99724 14.1583 10.1771 14.052L17.6409 9.72746C17.9188 9.89096 18.1804 10.2098 18.1804 10.6022C18.1804 10.9537 17.976 11.2725 17.5836 11.5096L10.7003 15.5644C10.3161 15.7851 10.0381 15.9405 9.71929 15.9405ZM9.71929 19.75C9.39229 19.75 9.11434 19.6029 8.73012 19.374L1.85495 15.3273C1.46255 15.0984 1.25 14.7714 1.25 14.4117C1.25 14.0193 1.5116 13.7087 1.79772 13.5452L9.25331 17.8698C9.43316 17.976 9.58031 18.0414 9.71929 18.0414C9.85826 18.0414 9.99724 17.976 10.1771 17.8698L17.6409 13.5452C17.9188 13.7087 18.1804 14.0193 18.1804 14.4117C18.1804 14.7714 17.9679 15.0984 17.5836 15.3273L10.7003 19.374C10.3161 19.6029 10.0381 19.75 9.71929 19.75Z" fill="white" fill-opacity="0.65"/>
</g>
</svg>
