<svg width="12" height="13" viewBox="0 0 12 13" fill="none" xmlns="http://www.w3.org/2000/svg">
<g id="icon/filter">
<path id="&#244;&#128;&#140;&#136;" d="M6.31582 11.8684C3.55668 11.8684 1.26318 9.57495 1.26318 6.81582C1.26318 4.05173 3.55173 1.76318 6.31086 1.76318C9.07495 1.76318 11.3684 4.05173 11.3684 6.81582C11.3684 9.57495 9.0799 11.8684 6.31582 11.8684ZM6.31582 11.0263C8.6539 11.0263 10.5263 9.1539 10.5263 6.81582C10.5263 4.47773 8.64894 2.60529 6.31086 2.60529C3.97278 2.60529 2.11024 4.47773 2.11024 6.81582C2.11024 9.1539 3.97773 11.0263 6.31582 11.0263ZM3.62108 5.83996C3.39817 5.83996 3.24461 5.70126 3.24461 5.48826C3.24461 5.28021 3.39817 5.14151 3.62108 5.14151H9.02046C9.23842 5.14151 9.39693 5.28021 9.39693 5.48826C9.39693 5.70126 9.23842 5.83996 9.02046 5.83996H3.62108ZM4.35421 7.47959C4.1313 7.47959 3.97773 7.34089 3.97773 7.12789C3.97773 6.91984 4.1313 6.78114 4.35421 6.78114H8.28733C8.50529 6.78114 8.65885 6.91984 8.65885 7.12789C8.65885 7.34089 8.50529 7.47959 8.28733 7.47959H4.35421ZM5.11705 9.12417C4.8991 9.12417 4.74554 8.98052 4.74554 8.77247C4.74554 8.56442 4.8991 8.42572 5.11705 8.42572H7.51953C7.73749 8.42572 7.896 8.56442 7.896 8.77247C7.896 8.98052 7.73749 9.12417 7.51953 9.12417H5.11705Z" fill="white" fill-opacity="0.65"/>
</g>
</svg>
