<svg width="20" height="20" viewBox="0 0 20 20" fill="none" xmlns="http://www.w3.org/2000/svg">
<g id="icon/question">
<path id="&#244;&#128;&#129;&#157;" d="M10 18.75C5.21418 18.75 1.25 14.7943 1.25 10C1.25 5.21418 5.20571 1.25 9.99153 1.25C14.7858 1.25 18.75 5.21418 18.75 10C18.75 14.7943 14.7858 18.75 10 18.75ZM9.80518 11.7619C10.288 11.7619 10.6014 11.4739 10.6268 11.1096C10.6268 11.0758 10.6268 11.0419 10.6268 11.008C10.6607 10.5506 10.9656 10.2456 11.5416 9.87294C12.4056 9.31389 12.9731 8.80566 12.9731 7.78074C12.9731 6.30687 11.6517 5.47677 10.0847 5.47677C8.56849 5.47677 7.55203 6.16288 7.27251 6.98451C7.22168 7.13698 7.1878 7.28098 7.1878 7.45039C7.1878 7.87391 7.52662 8.1365 7.88238 8.1365C8.20426 8.1365 8.42449 8.00097 8.60237 7.77227L8.7379 7.58592C9.04284 7.1031 9.44942 6.85745 9.97459 6.85745C10.6861 6.85745 11.1605 7.27251 11.1605 7.86544C11.1605 8.42449 10.7962 8.69555 10.0424 9.21225C9.42401 9.65271 8.9666 10.1016 8.9666 10.9063V10.9995C8.9666 11.4993 9.26307 11.7619 9.80518 11.7619ZM9.78824 14.4555C10.3558 14.4555 10.8301 14.0489 10.8301 13.4898C10.8301 12.9308 10.3642 12.5157 9.78824 12.5157C9.22072 12.5157 8.75484 12.9393 8.75484 13.4898C8.75484 14.0404 9.22919 14.4555 9.78824 14.4555Z" fill="white" fill-opacity="0.65"/>
</g>
</svg>
