<svg width="20" height="20" viewBox="0 0 20 20" fill="none" xmlns="http://www.w3.org/2000/svg">
<g id="icon" opacity="0.85">
<path id="Vector" d="M18.4862 9.86324L10.4413 1.82418C10.3834 1.76614 10.3146 1.7201 10.2388 1.68868C10.1631 1.65726 10.0819 1.64109 9.99988 1.64109C9.91788 1.64109 9.83668 1.65726 9.76094 1.68868C9.6852 1.7201 9.6164 1.76614 9.55847 1.82418L1.51355 9.86324C1.27917 10.0976 1.14636 10.416 1.14636 10.748C1.14636 11.4375 1.70691 11.998 2.39636 11.998H3.24402V17.7343C3.24402 18.08 3.52332 18.3593 3.86902 18.3593H8.74988V13.9843H10.9374V18.3593H16.1307C16.4764 18.3593 16.7557 18.08 16.7557 17.7343V11.998H17.6034C17.9354 11.998 18.2538 11.8671 18.4882 11.6308C18.9745 11.1425 18.9745 10.3515 18.4862 9.86324V9.86324Z" fill="#FFF"/>
</g>
</svg>
