<svg width="29" height="32" viewBox="0 0 29 32" fill="none" xmlns="http://www.w3.org/2000/svg">
<g id="Logo_graph_white">
<g id="Vector">
<path d="M14.5994 19.6475C14.5994 18.2634 15.5682 16.5803 16.7632 15.8883L27.1724 9.86014C27.7699 9.51411 28.2543 9.79462 28.2543 10.4867V23.796C28.2543 24.4881 27.7699 25.3296 27.1724 25.6757L16.7632 31.7038C15.5681 32.3959 14.5994 31.8349 14.5994 30.4507V29.0029L25.5232 22.6767V20.4626L14.5994 26.7887V23.3093L25.5232 16.9832V14.769L14.5994 21.0951V19.6475Z" fill="white" fill-opacity="0.85"/>
<path fill-rule="evenodd" clip-rule="evenodd" d="M2.92318e-07 10.4867C3.07518e-07 9.79461 0.48438 9.5141 1.08189 9.86013L11.4911 15.8883C12.6861 16.5803 13.6549 18.2634 13.6549 19.6475V30.4507C13.6549 31.8348 12.6861 32.3959 11.4911 31.7038L1.08189 25.6757C0.484379 25.3296 -1.51999e-08 24.4881 0 23.796L2.92318e-07 10.4867ZM2.73097 14.769L9.96806 18.9601C10.496 19.2658 10.9239 20.0093 10.9239 20.6207C10.9239 21.2322 10.496 21.48 9.96806 21.1743L2.73097 16.9832V14.769ZM9.96806 24.6537L2.73097 20.4626L2.73097 22.6768L9.96806 26.8679C10.496 27.1736 10.9239 26.9258 10.9239 26.3143C10.9239 25.7029 10.496 24.9594 9.96806 24.6537Z" fill="white" fill-opacity="0.85"/>
</g>
<path id="Subtract" fill-rule="evenodd" clip-rule="evenodd" d="M15.888 0.421115C14.9155 -0.140372 13.3387 -0.140371 12.3662 0.421116L1.43572 6.73183C0.463198 7.29332 0.463199 8.20367 1.43572 8.76515L12.3662 15.0759C13.3387 15.6374 14.9155 15.6374 15.888 15.0759L26.8185 8.76515C27.791 8.20366 27.791 7.29331 26.8185 6.73183L15.888 0.421115ZM13.8965 3.64674C14.2103 3.46558 14.5151 3.46038 14.801 3.62543L18.3992 5.70291C19.4738 6.3233 19.8913 7.00431 19.8665 7.70165C19.8322 8.48413 19.2489 9.29901 18.1507 9.93306C17.1533 10.5089 15.9315 10.8386 14.738 10.913C13.3647 11.0001 12.0167 10.7653 10.8238 10.0766L7.22555 7.9991C6.93966 7.83404 6.94867 7.65808 7.27365 7.47046L13.8965 3.64674ZM17.1621 7.87424C17.1788 7.53449 16.9947 7.20822 16.3933 6.86102L14.2738 5.63731C14.1851 5.58608 14.1008 5.58919 13.9887 5.65389L10.7277 7.53664C10.6157 7.60134 10.6103 7.64998 10.699 7.70121L12.8185 8.92492C13.4495 9.28919 14.0975 9.40454 14.742 9.36256C15.3121 9.32939 15.8957 9.1746 16.3551 8.90933C16.8594 8.61819 17.1427 8.23831 17.1621 7.87424Z" fill="white" fill-opacity="0.85"/>
</g>
</svg>
