<svg width="20" height="20" viewBox="0 0 20 20" fill="none" xmlns="http://www.w3.org/2000/svg">
<g id="icon" opacity="0.65">
<path id="&#244;&#128;&#144;&#153;" d="M10.5042 9.52022L2.60325 5.09467C2.73731 4.97059 2.88812 4.87132 3.07245 4.77206L8.9793 1.44669C9.49039 1.15717 10.0015 1 10.5042 1C10.9985 1 11.5096 1.15717 12.0207 1.44669L17.9359 4.77206C18.1203 4.87132 18.2711 4.97059 18.3967 5.09467L10.5042 9.52022ZM9.92607 19C9.86742 18.9835 9.81715 18.9586 9.76688 18.9256L3.19813 15.2362C2.4273 14.7978 2 14.3511 2 13.1517V6.70772C2 6.45956 2.01676 6.26103 2.06703 6.07904L9.92607 10.5129V19ZM11.0739 19V10.5129L18.933 6.07904C18.9832 6.26103 19 6.45956 19 6.70772V13.1517C19 14.3511 18.5811 14.7978 17.8019 15.2362L11.2415 18.9256C11.1828 18.9586 11.1326 18.9835 11.0739 19Z" fill="white" fill-opacity="0.85"/>
</g>
</svg>
