<svg width="16" height="17" viewBox="0 0 16 17" fill="none" xmlns="http://www.w3.org/2000/svg">
<g id="icon/sort">
<path id="&#244;&#128;&#129;&#190;" d="M8.42105 15.6578C4.7422 15.6578 1.6842 12.5998 1.6842 8.92092C1.6842 5.23548 4.7356 2.18408 8.41444 2.18408C12.0999 2.18408 15.1579 5.23548 15.1579 8.92092C15.1579 12.5998 12.1065 15.6578 8.42105 15.6578ZM8.42105 14.535C11.5385 14.535 14.0351 12.0384 14.0351 8.92092C14.0351 5.80348 11.5319 3.30689 8.41444 3.30689C5.297 3.30689 2.81362 5.80348 2.81362 8.92092C2.81362 12.0384 5.30361 14.535 8.42105 14.535ZM10.7789 12.0185C10.6006 12.2035 10.2968 12.1771 10.1383 12.0185L8.51351 10.3608C8.44086 10.2683 8.39463 10.1494 8.39463 10.0503C8.39463 9.79936 8.55975 9.62763 8.81073 9.62763C8.92961 9.62763 9.02868 9.66726 9.11454 9.75312L9.79483 10.4532L10.0458 10.7306L10.0326 10.4202V6.12712C10.0326 5.88274 10.2175 5.70441 10.4619 5.70441C10.7063 5.70441 10.8912 5.88274 10.8912 6.12712V10.4136L10.878 10.724L11.129 10.4532L11.8093 9.75312C11.8819 9.67386 11.9942 9.62763 12.1131 9.62763C12.3575 9.62763 12.5358 9.79936 12.5358 10.0503C12.5358 10.156 12.4764 10.2749 12.3971 10.3608L10.7789 12.0185ZM6.05655 5.83651C6.24808 5.64497 6.52548 5.67139 6.684 5.83651L8.30877 7.5009C8.38142 7.57356 8.43426 7.69905 8.43426 7.80472C8.43426 8.0557 8.26253 8.23403 8.01816 8.23403C7.90588 8.23403 7.8002 8.1878 7.72094 8.10854L7.03405 7.39523L6.78307 7.12443L6.79628 7.44146V11.7279C6.79628 11.9657 6.61795 12.144 6.36697 12.144C6.12259 12.144 5.93766 11.9657 5.93766 11.7279V7.44807L5.95087 7.12443L5.69989 7.39523L5.0196 8.10194C4.94034 8.18119 4.83467 8.23403 4.72239 8.23403C4.47801 8.23403 4.29308 8.0491 4.29308 7.80472C4.29308 7.71226 4.35252 7.58676 4.42517 7.5009L6.05655 5.83651Z" fill="white" fill-opacity="0.85"/>
</g>
</svg>
